<svg xmlns="http://www.w3.org/2000/svg" xmlns:xlink="http://www.w3.org/1999/xlink" width="6050" zoomAndPan="magnify" viewBox="0 0 4537.5 1012.49997" height="1350" preserveAspectRatio="xMidYMid meet" version="1.0"><defs><g/><clipPath id="5bcb492e4a"><rect x="0" width="4527" y="0" height="412"/></clipPath></defs><g transform="matrix(1, 0, 0, 1, 5, 294)"><g clip-path="url(#5bcb492e4a)"><g fill="#031836" fill-opacity="1"><g transform="translate(1.060278, 393.659526)"><g><path d="M 257.015625 -363.484375 L 193.203125 -276.203125 L 10.921875 -276.203125 L 10.921875 -363.484375 Z M 167.484375 0 L 10.921875 0 L 10.921875 -87.265625 L 133.765625 -87.265625 C 141.765625 -87.265625 147.941406 -90.019531 152.296875 -95.53125 C 156.648438 -100.59375 158.828125 -106.765625 158.828125 -114.046875 C 158.828125 -121.335938 156.648438 -127.910156 152.296875 -133.765625 C 147.941406 -139.191406 141.765625 -141.90625 133.765625 -141.90625 L 39.84375 -141.90625 L 93.9375 -229.171875 L 168.6875 -229.171875 C 205.363281 -229.171875 231.921875 -217.710938 248.359375 -194.796875 C 264.347656 -171.878906 272.34375 -145.320312 272.34375 -115.125 C 272.34375 -84.207031 263.238281 -57.289062 245.03125 -34.375 C 226.820312 -11.457031 200.972656 0 167.484375 0 Z M 167.484375 0 "/></g></g><g transform="translate(290.327404, 393.659526)"><g><path d="M 10.921875 -272.875 L 10.921875 -363.484375 L 175.203125 -363.484375 C 229.035156 -363.484375 269.585938 -349.269531 296.859375 -320.84375 C 332.566406 -284.15625 350.953125 -239.078125 352.015625 -185.609375 C 352.015625 -183.742188 352.015625 -181.921875 352.015625 -180.140625 C 352.015625 -150.296875 346.019531 -122.445312 334.03125 -96.59375 C 320.882812 -68.96875 303.785156 -48.40625 282.734375 -34.90625 C 263.460938 -23.625 242.546875 -15.097656 219.984375 -9.328125 C 197.421875 -3.109375 175.035156 0 152.828125 0 L 10.921875 0 L 10.921875 -228.109375 L 120.046875 -228.109375 L 120.046875 -87.265625 C 122.984375 -87.265625 125.914062 -87.265625 128.84375 -87.265625 C 165.175781 -87.265625 192.800781 -96.015625 211.71875 -113.515625 C 232.144531 -132.085938 242.359375 -155.003906 242.359375 -182.265625 C 242.359375 -207.410156 235.429688 -228.863281 221.578125 -246.625 C 207.722656 -264.125 189.515625 -272.875 166.953125 -272.875 Z M 10.921875 -272.875 "/></g></g></g><g fill="#031836" fill-opacity="1"><g transform="translate(661.404757, 393.659526)"><g><path d="M 85.140625 -389.671875 L 88.953125 -383.65625 C 84.222656 -364.375 77.398438 -343.085938 68.484375 -319.796875 C 59.578125 -296.515625 50.753906 -275.234375 42.015625 -255.953125 L 6.546875 -255.953125 C 10.179688 -269.421875 13.726562 -284.15625 17.1875 -300.15625 C 20.644531 -316.164062 23.828125 -331.898438 26.734375 -347.359375 C 29.648438 -362.828125 32.019531 -376.929688 33.84375 -389.671875 Z M 85.140625 -389.671875 "/></g></g></g><g fill="#031836" fill-opacity="1"><g transform="translate(756.912062, 393.659526)"><g><path d="M 141.90625 -363.484375 C 138.613281 -351.128906 136.96875 -343.664062 136.96875 -341.09375 C 140.257812 -323.238281 146.078125 -307.601562 154.421875 -294.1875 C 162.421875 -280.332031 175.878906 -261.238281 194.796875 -236.90625 C 213.710938 -212.113281 227.925781 -190.613281 237.4375 -172.40625 C 246.851562 -153.84375 251.5625 -134.035156 251.5625 -112.984375 C 251.5625 -81.359375 240.28125 -54.617188 217.71875 -32.765625 C 195.15625 -10.921875 164.597656 0 126.046875 0 L 10.921875 0 L 10.921875 -90.609375 L 113.515625 -90.609375 C 122.578125 -90.609375 130.21875 -93.894531 136.4375 -100.46875 C 142.300781 -106.59375 145.234375 -114.765625 145.234375 -124.984375 C 145.234375 -134.035156 142.476562 -143.140625 136.96875 -152.296875 C 130.039062 -163.222656 116.40625 -181.382812 96.0625 -206.78125 C 75.71875 -231.925781 60.441406 -254.132812 50.234375 -273.40625 C 39.660156 -292.6875 34.375 -313.425781 34.375 -335.625 C 34.375 -341.050781 35.835938 -350.335938 38.765625 -363.484375 Z M 141.90625 -363.484375 "/></g></g></g><g fill="#031836" fill-opacity="1"><g transform="translate(1024.327598, 393.659526)"><g/></g></g><g fill="#031836" fill-opacity="1"><g transform="translate(1120.394628, 393.659526)"><g><path d="M 10.921875 -272.875 L 10.921875 -363.484375 L 175.203125 -363.484375 C 229.035156 -363.484375 269.585938 -349.269531 296.859375 -320.84375 C 332.566406 -284.15625 350.953125 -239.078125 352.015625 -185.609375 C 352.015625 -183.742188 352.015625 -181.921875 352.015625 -180.140625 C 352.015625 -150.296875 346.019531 -122.445312 334.03125 -96.59375 C 320.882812 -68.96875 303.785156 -48.40625 282.734375 -34.90625 C 263.460938 -23.625 242.546875 -15.097656 219.984375 -9.328125 C 197.421875 -3.109375 175.035156 0 152.828125 0 L 10.921875 0 L 10.921875 -228.109375 L 120.046875 -228.109375 L 120.046875 -87.265625 C 122.984375 -87.265625 125.914062 -87.265625 128.84375 -87.265625 C 165.175781 -87.265625 192.800781 -96.015625 211.71875 -113.515625 C 232.144531 -132.085938 242.359375 -155.003906 242.359375 -182.265625 C 242.359375 -207.410156 235.429688 -228.863281 221.578125 -246.625 C 207.722656 -264.125 189.515625 -272.875 166.953125 -272.875 Z M 10.921875 -272.875 "/></g></g><g transform="translate(1491.471985, 393.659526)"><g><path d="M 121.109375 -227.046875 L 121.109375 0 L 10.921875 0 L 10.921875 -227.046875 Z M 10.921875 -363.484375 L 121.109375 -363.484375 L 121.109375 -272.875 L 10.921875 -272.875 Z M 10.921875 -363.484375 "/></g></g><g transform="translate(1633.374101, 393.659526)"><g><path d="M 141.90625 -363.484375 C 138.613281 -351.128906 136.96875 -343.664062 136.96875 -341.09375 C 140.257812 -323.238281 146.078125 -307.601562 154.421875 -294.1875 C 162.421875 -280.332031 175.878906 -261.238281 194.796875 -236.90625 C 213.710938 -212.113281 227.925781 -190.613281 237.4375 -172.40625 C 246.851562 -153.84375 251.5625 -134.035156 251.5625 -112.984375 C 251.5625 -81.359375 240.28125 -54.617188 217.71875 -32.765625 C 195.15625 -10.921875 164.597656 0 126.046875 0 L 10.921875 0 L 10.921875 -90.609375 L 113.515625 -90.609375 C 122.578125 -90.609375 130.21875 -93.894531 136.4375 -100.46875 C 142.300781 -106.59375 145.234375 -114.765625 145.234375 -124.984375 C 145.234375 -134.035156 142.476562 -143.140625 136.96875 -152.296875 C 130.039062 -163.222656 116.40625 -181.382812 96.0625 -206.78125 C 75.71875 -231.925781 60.441406 -254.132812 50.234375 -273.40625 C 39.660156 -292.6875 34.375 -313.425781 34.375 -335.625 C 34.375 -341.050781 35.835938 -350.335938 38.765625 -363.484375 Z M 141.90625 -363.484375 "/></g></g></g><g fill="#031836" fill-opacity="1"><g transform="translate(1900.78955, 393.659526)"><g><path d="M 245.5625 -364.546875 L 245.5625 -272.875 L 10.921875 -272.875 L 10.921875 -364.546875 Z M 127.109375 -227.046875 L 127.109375 -116.1875 C 127.109375 -106.0625 129.863281 -99.351562 135.375 -96.0625 C 140.4375 -92.425781 152.25 -90.609375 170.8125 -90.609375 L 230.375 -90.609375 L 230.375 0 L 111.390625 0 C 72.390625 0 48.359375 -9.632812 39.296875 -28.90625 C 30.242188 -48.1875 25.71875 -79.097656 25.71875 -121.640625 L 25.71875 -227.046875 Z M 127.109375 -227.046875 "/></g></g></g><g fill="#031836" fill-opacity="1"><g transform="translate(2168.205176, 393.659526)"><g><path d="M 158.828125 -97.125 C 158.828125 -115.34375 155.71875 -126.445312 149.5 -130.4375 C 143.363281 -134.4375 133.015625 -136.4375 118.453125 -136.4375 L 10.921875 -136.4375 L 10.921875 -227.046875 L 158.828125 -227.046875 C 165.753906 -227.046875 171.035156 -229.21875 174.671875 -233.5625 C 177.960938 -237.914062 179.609375 -243.203125 179.609375 -249.421875 C 179.609375 -265.054688 172.679688 -272.875 158.828125 -272.875 L 10.921875 -272.875 L 10.921875 -363.484375 L 197.59375 -363.484375 C 219.445312 -363.484375 238.007812 -358.726562 253.28125 -349.21875 C 268.125 -339.445312 279.363281 -326.742188 287 -311.109375 C 294.726562 -295.035156 298.59375 -278.648438 298.59375 -261.953125 C 298.59375 -237.609375 291.484375 -217.046875 277.265625 -200.265625 C 262.703125 -183.203125 242.851562 -174.671875 217.71875 -174.671875 C 216.289062 -174.671875 215.222656 -174.316406 214.515625 -173.609375 C 217.003906 -173.160156 222.800781 -172.023438 231.90625 -170.203125 C 241.007812 -168.390625 249.378906 -164.773438 257.015625 -159.359375 C 264.296875 -153.941406 267.9375 -146.300781 267.9375 -136.4375 L 267.9375 0 L 158.828125 0 Z M 158.828125 -97.125 "/></g></g><g transform="translate(2479.323894, 393.659526)"><g><path d="M 121.109375 -227.046875 L 121.109375 0 L 10.921875 0 L 10.921875 -227.046875 Z M 10.921875 -363.484375 L 121.109375 -363.484375 L 121.109375 -272.875 L 10.921875 -272.875 Z M 10.921875 -363.484375 "/></g></g><g transform="translate(2621.22601, 393.659526)"><g><path d="M 144.03125 -363.484375 C 193.15625 -363.484375 227.53125 -356.550781 247.15625 -342.6875 C 266.519531 -328.925781 276.203125 -303.125 276.203125 -265.28125 C 276.203125 -231.082031 260.171875 -202.703125 228.109375 -180.140625 C 246.671875 -172.859375 261.945312 -161.929688 273.9375 -147.359375 C 285.570312 -132.796875 291.390625 -117.164062 291.390625 -100.46875 C 291.390625 -100.113281 291.390625 -99.710938 291.390625 -99.265625 C 291.390625 -73.503906 285.925781 -53.335938 275 -38.765625 C 264.164062 -24.203125 249.066406 -14.210938 229.703125 -8.796875 C 210.429688 -2.929688 187.515625 0 160.953125 0 L 10.921875 0 L 10.921875 -90.609375 L 142.96875 -90.609375 C 149.539062 -90.609375 154.828125 -92.601562 158.828125 -96.59375 C 162.460938 -100.238281 164.28125 -104.59375 164.28125 -109.65625 C 164.28125 -121.644531 157.929688 -127.640625 145.234375 -127.640625 L 10.921875 -127.640625 L 10.921875 -218.25 L 144.03125 -218.25 C 150.25 -218.25 155.175781 -220.800781 158.8125 -225.90625 C 162.457031 -231.007812 164.28125 -237.382812 164.28125 -245.03125 C 164.28125 -253.019531 162.460938 -259.769531 158.828125 -265.28125 C 155.179688 -270.34375 150.25 -272.875 144.03125 -272.875 L 10.921875 -272.875 L 10.921875 -363.484375 Z M 144.03125 -363.484375 "/></g></g><g transform="translate(2926.881828, 393.659526)"><g><path d="M 10.921875 -363.484375 L 120.046875 -363.484375 L 120.046875 -132.046875 C 120.046875 -121.472656 121.15625 -113.832031 123.375 -109.125 C 125.507812 -104.0625 129.863281 -100.421875 136.4375 -98.203125 C 142.65625 -96.066406 151.40625 -95 162.6875 -95 L 229.703125 -95 L 229.703125 -363.484375 L 338.421875 -363.484375 L 338.421875 0 L 120.046875 0 C 94.910156 0 74.898438 -3.082031 60.015625 -9.25 C 45.140625 -15.425781 34.414062 -23.976562 27.84375 -34.90625 C 20.914062 -45.832031 16.34375 -58.757812 14.125 -73.6875 C 11.988281 -88.601562 10.921875 -106.988281 10.921875 -128.84375 Z M 10.921875 -363.484375 "/></g></g></g><g fill="#031836" fill-opacity="1"><g transform="translate(3281.570438, 393.659526)"><g><path d="M 245.5625 -364.546875 L 245.5625 -272.875 L 10.921875 -272.875 L 10.921875 -364.546875 Z M 127.109375 -227.046875 L 127.109375 -116.1875 C 127.109375 -106.0625 129.863281 -99.351562 135.375 -96.0625 C 140.4375 -92.425781 152.25 -90.609375 170.8125 -90.609375 L 230.375 -90.609375 L 230.375 0 L 111.390625 0 C 72.390625 0 48.359375 -9.632812 39.296875 -28.90625 C 30.242188 -48.1875 25.71875 -79.097656 25.71875 -121.640625 L 25.71875 -227.046875 Z M 127.109375 -227.046875 "/></g></g></g><g fill="#031836" fill-opacity="1"><g transform="translate(3548.985895, 393.659526)"><g><path d="M 198.65625 -263.015625 C 176.8125 -263.015625 158.25 -255.195312 142.96875 -239.5625 C 127.332031 -223.570312 119.515625 -204.472656 119.515625 -182.265625 C 119.515625 -159.703125 127.332031 -140.425781 142.96875 -124.4375 C 158.601562 -108.457031 177.164062 -100.46875 198.65625 -100.46875 C 212.875 -100.46875 225.976562 -104.285156 237.96875 -111.921875 C 249.957031 -119.203125 259.414062 -129.019531 266.34375 -141.375 C 272.914062 -153.71875 276.203125 -167.347656 276.203125 -182.265625 C 276.203125 -204.472656 268.742188 -223.570312 253.828125 -239.5625 C 238.898438 -255.195312 220.507812 -263.015625 198.65625 -263.015625 Z M 198.65625 -373.34375 C 224.15625 -373.34375 248.363281 -368.234375 271.28125 -358.015625 C 293.84375 -347.796875 313.648438 -334.160156 330.703125 -317.109375 C 347.492188 -299.609375 360.773438 -279.222656 370.546875 -255.953125 C 380.398438 -232.328125 385.328125 -207.765625 385.328125 -182.265625 C 385.328125 -147.710938 376.929688 -115.691406 360.140625 -86.203125 C 343.085938 -56.710938 320.171875 -33.441406 291.390625 -16.390625 C 262.703125 1.109375 231.789062 9.859375 198.65625 9.859375 C 165.53125 9.859375 134.441406 1.109375 105.390625 -16.390625 C 76.253906 -33.441406 53.289062 -56.710938 36.5 -86.203125 C 19.445312 -115.691406 10.921875 -147.710938 10.921875 -182.265625 C 10.921875 -207.765625 15.851562 -232.328125 25.71875 -255.953125 C 35.488281 -279.222656 48.945312 -299.609375 66.09375 -317.109375 C 82.789062 -334.160156 102.773438 -347.796875 126.046875 -358.015625 C 148.960938 -368.234375 173.164062 -373.34375 198.65625 -373.34375 Z M 198.65625 -373.34375 "/></g></g><g transform="translate(3947.377744, 393.659526)"><g><path d="M 158.828125 -97.125 C 158.828125 -115.34375 155.71875 -126.445312 149.5 -130.4375 C 143.363281 -134.4375 133.015625 -136.4375 118.453125 -136.4375 L 10.921875 -136.4375 L 10.921875 -227.046875 L 158.828125 -227.046875 C 165.753906 -227.046875 171.035156 -229.21875 174.671875 -233.5625 C 177.960938 -237.914062 179.609375 -243.203125 179.609375 -249.421875 C 179.609375 -265.054688 172.679688 -272.875 158.828125 -272.875 L 10.921875 -272.875 L 10.921875 -363.484375 L 197.59375 -363.484375 C 219.445312 -363.484375 238.007812 -358.726562 253.28125 -349.21875 C 268.125 -339.445312 279.363281 -326.742188 287 -311.109375 C 294.726562 -295.035156 298.59375 -278.648438 298.59375 -261.953125 C 298.59375 -237.609375 291.484375 -217.046875 277.265625 -200.265625 C 262.703125 -183.203125 242.851562 -174.671875 217.71875 -174.671875 C 216.289062 -174.671875 215.222656 -174.316406 214.515625 -173.609375 C 217.003906 -173.160156 222.800781 -172.023438 231.90625 -170.203125 C 241.007812 -168.390625 249.378906 -164.773438 257.015625 -159.359375 C 264.296875 -153.941406 267.9375 -146.300781 267.9375 -136.4375 L 267.9375 0 L 158.828125 0 Z M 158.828125 -97.125 "/></g></g><g transform="translate(4258.496463, 393.659526)"><g><path d="M 141.90625 -363.484375 C 138.613281 -351.128906 136.96875 -343.664062 136.96875 -341.09375 C 140.257812 -323.238281 146.078125 -307.601562 154.421875 -294.1875 C 162.421875 -280.332031 175.878906 -261.238281 194.796875 -236.90625 C 213.710938 -212.113281 227.925781 -190.613281 237.4375 -172.40625 C 246.851562 -153.84375 251.5625 -134.035156 251.5625 -112.984375 C 251.5625 -81.359375 240.28125 -54.617188 217.71875 -32.765625 C 195.15625 -10.921875 164.597656 0 126.046875 0 L 10.921875 0 L 10.921875 -90.609375 L 113.515625 -90.609375 C 122.578125 -90.609375 130.21875 -93.894531 136.4375 -100.46875 C 142.300781 -106.59375 145.234375 -114.765625 145.234375 -124.984375 C 145.234375 -134.035156 142.476562 -143.140625 136.96875 -152.296875 C 130.039062 -163.222656 116.40625 -181.382812 96.0625 -206.78125 C 75.71875 -231.925781 60.441406 -254.132812 50.234375 -273.40625 C 39.660156 -292.6875 34.375 -313.425781 34.375 -335.625 C 34.375 -341.050781 35.835938 -350.335938 38.765625 -363.484375 Z M 141.90625 -363.484375 "/></g></g></g></g></g></svg>