<svg xmlns="http://www.w3.org/2000/svg" xmlns:xlink="http://www.w3.org/1999/xlink" width="6050" zoomAndPan="magnify" viewBox="0 0 4537.5 1012.49997" height="1350" preserveAspectRatio="xMidYMid meet" version="1.0"><defs><g/><clipPath id="bc144ba728"><rect x="0" width="4363" y="0" height="874"/></clipPath></defs><g transform="matrix(1, 0, 0, 1, 65, 75)"><g clip-path="url(#bc144ba728)"><g fill="#031836" fill-opacity="1"><g transform="translate(0.990595, 832.766363)"><g><path d="M 267.859375 -502.140625 L 267.859375 0 L 24.15625 0 L 24.15625 -502.140625 Z M 24.15625 -803.890625 L 267.859375 -803.890625 L 267.859375 -603.515625 L 24.15625 -603.515625 Z M 24.15625 -803.890625 "/></g></g><g transform="translate(314.827761, 832.766363)"><g><path d="M 500.953125 -803.890625 C 583.078125 -803.890625 641.425781 -788.175781 676 -756.75 C 709.789062 -725.3125 726.6875 -674.234375 726.6875 -603.515625 L 726.6875 0 L 467.0625 0 L 467.0625 -516.578125 C 467.0625 -548.796875 465.882812 -570.109375 463.53125 -580.515625 C 461.175781 -590.148438 455.085938 -596.632812 445.265625 -599.96875 C 435.640625 -602.332031 416.382812 -603.515625 387.5 -603.515625 L 264.328125 -603.515625 L 264.328125 0 L 24.15625 0 L 24.15625 -803.890625 Z M 500.953125 -803.890625 "/></g></g><g transform="translate(1087.19133, 832.766363)"><g><path d="M 24.15625 -803.890625 L 264.328125 -803.890625 L 394.578125 -271.703125 L 526.296875 -803.890625 L 766.46875 -803.890625 L 526.296875 -4.71875 L 264.328125 -4.71875 Z M 24.15625 -803.890625 "/></g></g><g transform="translate(1883.718885, 832.766363)"><g><path d="M 439.375 -581.703125 C 391.039062 -581.703125 349.976562 -564.414062 316.1875 -529.84375 C 281.613281 -494.476562 264.328125 -452.238281 264.328125 -403.125 C 264.328125 -353.226562 281.613281 -310.597656 316.1875 -275.234375 C 350.769531 -239.867188 391.832031 -222.1875 439.375 -222.1875 C 470.800781 -222.1875 499.773438 -230.632812 526.296875 -247.53125 C 552.816406 -263.644531 573.738281 -285.351562 589.0625 -312.65625 C 603.601562 -339.96875 610.875 -370.125 610.875 -403.125 C 610.875 -452.238281 594.375 -494.476562 561.375 -529.84375 C 528.363281 -564.414062 487.695312 -581.703125 439.375 -581.703125 Z M 439.375 -825.703125 C 495.75 -825.703125 549.28125 -814.40625 599.96875 -791.8125 C 649.875 -769.21875 693.6875 -739.0625 731.40625 -701.34375 C 768.53125 -662.644531 797.898438 -617.554688 819.515625 -566.078125 C 841.316406 -513.828125 852.21875 -459.507812 852.21875 -403.125 C 852.21875 -326.707031 833.65625 -255.882812 796.53125 -190.65625 C 758.8125 -125.4375 708.125 -73.96875 644.46875 -36.25 C 581.007812 2.457031 512.644531 21.8125 439.375 21.8125 C 366.09375 21.8125 297.332031 2.457031 233.09375 -36.25 C 168.65625 -73.96875 117.875 -125.4375 80.75 -190.65625 C 43.019531 -255.882812 24.15625 -326.707031 24.15625 -403.125 C 24.15625 -459.507812 35.0625 -513.828125 56.875 -566.078125 C 78.476562 -617.554688 108.238281 -662.644531 146.15625 -701.34375 C 183.09375 -739.0625 227.296875 -769.21875 278.765625 -791.8125 C 329.453125 -814.40625 382.988281 -825.703125 439.375 -825.703125 Z M 439.375 -825.703125 "/></g></g><g transform="translate(2764.820398, 832.766363)"><g><path d="M 267.859375 -502.140625 L 267.859375 0 L 24.15625 0 L 24.15625 -502.140625 Z M 24.15625 -803.890625 L 267.859375 -803.890625 L 267.859375 -603.515625 L 24.15625 -603.515625 Z M 24.15625 -803.890625 "/></g></g><g transform="translate(3078.657564, 832.766363)"><g><path d="M 460 -803.890625 L 603.515625 -803.890625 L 603.515625 -598.796875 L 549.28125 -598.796875 C 476.007812 -598.796875 413.632812 -583.863281 362.15625 -554 C 309.90625 -523.351562 283.78125 -474.632812 283.78125 -407.84375 C 283.78125 -329.84375 307.453125 -276.015625 354.796875 -246.359375 C 402.335938 -215.710938 466.285156 -200.390625 546.640625 -200.390625 L 603.515625 -200.390625 L 603.515625 0 L 398.40625 0 C 310.59375 0 238.9375 -21.707031 183.4375 -65.125 C 127.9375 -108.539062 88.109375 -161.289062 63.953125 -223.375 C 38.992188 -284.46875 25.726562 -344.382812 24.15625 -403.125 C 24.15625 -481.113281 41.835938 -550.3125 77.203125 -610.71875 C 112.566406 -671.132812 162.859375 -718.628906 228.078125 -753.203125 C 293.304688 -786.992188 370.613281 -803.890625 460 -803.890625 Z M 460 -803.890625 "/></g></g><g transform="translate(3730.495871, 832.766363)"><g><path d="M 590.25 -502.140625 L 590.25 -301.75 L 264.328125 -301.75 L 264.328125 -200.390625 L 590.25 -200.390625 L 590.25 0 L 24.15625 0 L 24.15625 -502.140625 Z M 24.15625 -803.890625 L 590.25 -803.890625 L 590.25 -603.515625 L 24.15625 -603.515625 Z M 24.15625 -803.890625 "/></g></g></g></g></g></svg>